<mxfile host="65bd71144e">
    <diagram id="LAZuYxywogpeZMEOusv5" name="Page-1">
        <mxGraphModel dx="2267" dy="1310" grid="1" gridSize="10" guides="1" tooltips="1" connect="1" arrows="1" fold="1" page="1" pageScale="1" pageWidth="10000000" pageHeight="10000000" math="0" shadow="0">
            <root>
                <mxCell id="0"/>
                <mxCell id="1" parent="0"/>
                <mxCell id="33" style="edgeStyle=none;rounded=1;html=1;exitX=0.5;exitY=1;exitDx=0;exitDy=0;fontSize=20;strokeColor=#FFFFFF;strokeWidth=2;" parent="1" source="34" target="36" edge="1">
                    <mxGeometry relative="1" as="geometry"/>
                </mxCell>
                <mxCell id="34" value="遍历当前容器中存在的BeanDefinition，&lt;br&gt;并进行对象的创建工作" style="whiteSpace=wrap;html=1;fontSize=20;" parent="1" vertex="1">
                    <mxGeometry x="540" y="80" width="340" height="110" as="geometry"/>
                </mxCell>
                <mxCell id="35" style="edgeStyle=none;rounded=1;html=1;exitX=0.5;exitY=1;exitDx=0;exitDy=0;fontSize=20;strokeColor=#FFFFFF;strokeWidth=2;" parent="1" source="36" target="38" edge="1">
                    <mxGeometry relative="1" as="geometry"/>
                </mxCell>
                <mxCell id="36" value="从List中按照顺序开始进行对象创建" style="whiteSpace=wrap;html=1;fontSize=20;" parent="1" vertex="1">
                    <mxGeometry x="558.75" y="250" width="300" height="105" as="geometry"/>
                </mxCell>
                <mxCell id="37" style="edgeStyle=none;rounded=1;html=1;exitX=0.5;exitY=1;exitDx=0;exitDy=0;entryX=0.5;entryY=0;entryDx=0;entryDy=0;fontSize=20;strokeColor=#FFFFFF;strokeWidth=2;" parent="1" source="38" target="40" edge="1">
                    <mxGeometry relative="1" as="geometry"/>
                </mxCell>
                <mxCell id="38" value="getBean()" style="whiteSpace=wrap;html=1;fontSize=20;" parent="1" vertex="1">
                    <mxGeometry x="648.75" y="405" width="120" height="60" as="geometry"/>
                </mxCell>
                <mxCell id="39" style="edgeStyle=none;rounded=1;html=1;exitX=0.5;exitY=1;exitDx=0;exitDy=0;fontSize=20;strokeColor=#FFFFFF;strokeWidth=2;" parent="1" source="40" target="42" edge="1">
                    <mxGeometry relative="1" as="geometry"/>
                </mxCell>
                <mxCell id="40" value="doGetBean()" style="whiteSpace=wrap;html=1;fontSize=20;" parent="1" vertex="1">
                    <mxGeometry x="648.75" y="545" width="120" height="60" as="geometry"/>
                </mxCell>
                <mxCell id="41" style="edgeStyle=none;rounded=1;html=1;exitX=0.5;exitY=1;exitDx=0;exitDy=0;fontSize=20;strokeColor=#FFFFFF;strokeWidth=2;" parent="1" source="42" target="44" edge="1">
                    <mxGeometry relative="1" as="geometry"/>
                </mxCell>
                <mxCell id="42" value="createBean()" style="whiteSpace=wrap;html=1;fontSize=20;" parent="1" vertex="1">
                    <mxGeometry x="648.75" y="660" width="120" height="60" as="geometry"/>
                </mxCell>
                <mxCell id="43" style="edgeStyle=none;rounded=1;html=1;exitX=0.5;exitY=1;exitDx=0;exitDy=0;entryX=0.5;entryY=0;entryDx=0;entryDy=0;fontSize=20;strokeColor=#FFFFFF;strokeWidth=2;" parent="1" source="44" target="47" edge="1">
                    <mxGeometry relative="1" as="geometry"/>
                </mxCell>
                <mxCell id="135" style="edgeStyle=none;html=1;exitX=0;exitY=0.5;exitDx=0;exitDy=0;entryX=1.018;entryY=0.499;entryDx=0;entryDy=0;entryPerimeter=0;fontSize=18;" edge="1" parent="1" source="44" target="45">
                    <mxGeometry relative="1" as="geometry"/>
                </mxCell>
                <mxCell id="44" value="resolveBeforeInstantiation()" style="whiteSpace=wrap;html=1;fontSize=20;" parent="1" vertex="1">
                    <mxGeometry x="556.25" y="780" width="302.5" height="70" as="geometry"/>
                </mxCell>
                <mxCell id="45" value="给BeanPostProcessor一个机会去返回自定义动态代理生成的对象，在当前BPP中，存在一个AutoProxyCreator的对象，因此会执行后续的判断逻辑" style="shape=note;size=20;whiteSpace=wrap;html=1;fontSize=20;fillColor=#6d8764;strokeColor=#3A5431;fontColor=#ffffff;" parent="1" vertex="1">
                    <mxGeometry x="115.01" y="700" width="360" height="230" as="geometry"/>
                </mxCell>
                <mxCell id="46" style="edgeStyle=none;rounded=1;html=1;exitX=0.5;exitY=1;exitDx=0;exitDy=0;fontSize=20;strokeColor=#FFFFFF;strokeWidth=2;" parent="1" source="47" target="48" edge="1">
                    <mxGeometry relative="1" as="geometry">
                        <mxPoint x="709" y="1080" as="targetPoint"/>
                    </mxGeometry>
                </mxCell>
                <mxCell id="47" value="postProcessBeforeInstantiation()" style="whiteSpace=wrap;html=1;fontSize=20;" parent="1" vertex="1">
                    <mxGeometry x="543.75" y="910" width="330" height="80" as="geometry"/>
                </mxCell>
                <mxCell id="52" value="" style="edgeStyle=none;rounded=1;html=1;fontSize=20;strokeColor=#FFFFFF;strokeWidth=2;" parent="1" source="48" target="51" edge="1">
                    <mxGeometry relative="1" as="geometry"/>
                </mxCell>
                <mxCell id="56" value="" style="edgeStyle=none;rounded=1;html=1;fontSize=20;strokeColor=#FFFFFF;strokeWidth=2;" parent="1" source="48" target="55" edge="1">
                    <mxGeometry relative="1" as="geometry"/>
                </mxCell>
                <mxCell id="57" value="如果不可以跳过" style="edgeLabel;html=1;align=center;verticalAlign=middle;resizable=0;points=[];fontSize=20;" parent="56" vertex="1" connectable="0">
                    <mxGeometry x="-0.2462" relative="1" as="geometry">
                        <mxPoint as="offset"/>
                    </mxGeometry>
                </mxCell>
                <mxCell id="59" value="" style="edgeStyle=none;rounded=1;html=1;fontSize=20;strokeColor=#FFFFFF;strokeWidth=2;" parent="1" source="48" target="58" edge="1">
                    <mxGeometry relative="1" as="geometry"/>
                </mxCell>
                <mxCell id="48" value="判断当前处理的对象是否需要被代理" style="strokeWidth=2;html=1;shape=mxgraph.flowchart.decision;whiteSpace=wrap;fontSize=20;" parent="1" vertex="1">
                    <mxGeometry x="593.12" y="1070" width="231.25" height="100" as="geometry"/>
                </mxCell>
                <mxCell id="79" value="" style="edgeStyle=elbowEdgeStyle;rounded=1;html=1;fontSize=20;strokeColor=#FFFFFF;strokeWidth=2;" parent="1" source="51" target="78" edge="1">
                    <mxGeometry relative="1" as="geometry"/>
                </mxCell>
                <mxCell id="51" value="如果跳过的话，直接返回空对象" style="whiteSpace=wrap;html=1;fontSize=20;strokeWidth=2;" parent="1" vertex="1">
                    <mxGeometry x="611.87" y="1220" width="191.26" height="70" as="geometry"/>
                </mxCell>
                <mxCell id="55" value="判断是否有自定义的targetSource" style="whiteSpace=wrap;html=1;fontSize=20;strokeWidth=2;" parent="1" vertex="1">
                    <mxGeometry x="220" y="1080" width="150.01" height="80" as="geometry"/>
                </mxCell>
                <mxCell id="61" value="" style="edgeStyle=none;rounded=1;html=1;fontSize=20;strokeColor=#FFFFFF;strokeWidth=2;" parent="1" source="58" target="60" edge="1">
                    <mxGeometry relative="1" as="geometry"/>
                </mxCell>
                <mxCell id="76" value="" style="edgeStyle=elbowEdgeStyle;rounded=1;html=1;fontSize=20;strokeColor=#FFFFFF;strokeWidth=2;" parent="1" source="58" target="75" edge="1">
                    <mxGeometry relative="1" as="geometry"/>
                </mxCell>
                <mxCell id="58" value="shouldSkip" style="whiteSpace=wrap;html=1;fontSize=20;strokeWidth=2;" parent="1" vertex="1">
                    <mxGeometry x="959.995" y="1090" width="120" height="60" as="geometry"/>
                </mxCell>
                <mxCell id="63" value="" style="edgeStyle=none;rounded=1;html=1;fontSize=20;strokeColor=#FFFFFF;strokeWidth=2;" parent="1" source="60" target="62" edge="1">
                    <mxGeometry relative="1" as="geometry"/>
                </mxCell>
                <mxCell id="60" value="创建动态代理需要的Advisor对象" style="whiteSpace=wrap;html=1;fontSize=20;strokeWidth=2;" parent="1" vertex="1">
                    <mxGeometry x="939.99" y="940" width="160.01" height="70" as="geometry"/>
                </mxCell>
                <mxCell id="65" value="" style="edgeStyle=none;rounded=1;html=1;fontSize=20;strokeColor=#FFFFFF;strokeWidth=2;" parent="1" source="62" target="64" edge="1">
                    <mxGeometry relative="1" as="geometry"/>
                </mxCell>
                <mxCell id="62" value="遍历当前容器中存在的Advisor的beanDefinition" style="whiteSpace=wrap;html=1;fontSize=20;strokeWidth=2;" parent="1" vertex="1">
                    <mxGeometry x="909.99" y="780" width="220.01" height="75" as="geometry"/>
                </mxCell>
                <mxCell id="69" value="" style="edgeStyle=elbowEdgeStyle;rounded=1;html=1;fontSize=20;strokeColor=#FFFFFF;strokeWidth=2;" parent="1" source="64" target="68" edge="1">
                    <mxGeometry relative="1" as="geometry"/>
                </mxCell>
                <mxCell id="71" value="" style="edgeStyle=elbowEdgeStyle;rounded=1;html=1;fontSize=20;strokeColor=#FFFFFF;strokeWidth=2;" parent="1" source="64" target="70" edge="1">
                    <mxGeometry relative="1" as="geometry"/>
                </mxCell>
                <mxCell id="133" style="edgeStyle=orthogonalEdgeStyle;html=1;exitX=1;exitY=0.5;exitDx=0;exitDy=0;entryX=0.5;entryY=0;entryDx=0;entryDy=0;" parent="1" source="64" target="75" edge="1">
                    <mxGeometry relative="1" as="geometry"/>
                </mxCell>
                <mxCell id="64" value="经过循环将所有Advisor对象准备好" style="whiteSpace=wrap;html=1;fontSize=20;strokeWidth=2;" parent="1" vertex="1">
                    <mxGeometry x="914.99" y="620" width="210.01" height="77.5" as="geometry"/>
                </mxCell>
                <mxCell id="68" value="findCandicateAdvisor()" style="whiteSpace=wrap;html=1;fontSize=20;strokeWidth=2;" parent="1" vertex="1">
                    <mxGeometry x="1240" y="533.75" width="319.99" height="71.25" as="geometry"/>
                </mxCell>
                <mxCell id="70" value="buildAdvisor()标注了@Aspect切面的对象" style="whiteSpace=wrap;html=1;fontSize=20;strokeWidth=2;" parent="1" vertex="1">
                    <mxGeometry x="1240" y="720" width="330" height="60" as="geometry"/>
                </mxCell>
                <mxCell id="73" value="" style="shape=curlyBracket;whiteSpace=wrap;html=1;rounded=1;flipH=1;fontSize=20;" parent="1" vertex="1">
                    <mxGeometry x="1576.25" y="533.75" width="20" height="260" as="geometry"/>
                </mxCell>
                <mxCell id="74" value="创建过程比较麻烦，&lt;br&gt;包含了N多个对象的迭代创建，包括AspectJAroundAdivce&lt;br&gt;(MethodLocationFactoryBean,AspectJExpressionPointCut,&lt;br&gt;SimpleBeanFactoryAwareAspectInstanceFactory)" style="whiteSpace=wrap;html=1;fontSize=20;" parent="1" vertex="1">
                    <mxGeometry x="1606.25" y="578.75" width="560" height="160" as="geometry"/>
                </mxCell>
                <mxCell id="75" value="判断能否跳过" style="whiteSpace=wrap;html=1;fontSize=20;strokeWidth=2;" parent="1" vertex="1">
                    <mxGeometry x="1159.995" y="1090" width="120" height="60" as="geometry"/>
                </mxCell>
                <mxCell id="81" value="" style="edgeStyle=elbowEdgeStyle;rounded=1;html=1;fontSize=20;strokeColor=#FFFFFF;strokeWidth=2;" parent="1" source="78" target="80" edge="1">
                    <mxGeometry relative="1" as="geometry"/>
                </mxCell>
                <mxCell id="78" value="doCreateBean" style="whiteSpace=wrap;html=1;fontSize=20;strokeWidth=2;" parent="1" vertex="1">
                    <mxGeometry x="583.75" y="1350" width="252.5" height="80" as="geometry"/>
                </mxCell>
                <mxCell id="83" value="" style="edgeStyle=elbowEdgeStyle;rounded=1;html=1;fontSize=20;strokeColor=#FFFFFF;strokeWidth=2;" parent="1" source="80" target="82" edge="1">
                    <mxGeometry relative="1" as="geometry"/>
                </mxCell>
                <mxCell id="80" value="createBeanInstance()" style="whiteSpace=wrap;html=1;fontSize=20;strokeWidth=2;" parent="1" vertex="1">
                    <mxGeometry x="595" y="1480" width="230" height="85" as="geometry"/>
                </mxCell>
                <mxCell id="85" value="" style="edgeStyle=elbowEdgeStyle;rounded=1;html=1;fontSize=20;strokeColor=#FFFFFF;strokeWidth=2;" parent="1" source="82" target="84" edge="1">
                    <mxGeometry relative="1" as="geometry"/>
                </mxCell>
                <mxCell id="82" value="populateBean" style="whiteSpace=wrap;html=1;fontSize=20;strokeWidth=2;" parent="1" vertex="1">
                    <mxGeometry x="618.74" y="1610" width="180" height="60" as="geometry"/>
                </mxCell>
                <mxCell id="87" value="" style="edgeStyle=elbowEdgeStyle;rounded=1;html=1;fontSize=20;strokeColor=#FFFFFF;strokeWidth=2;" parent="1" source="84" target="86" edge="1">
                    <mxGeometry relative="1" as="geometry"/>
                </mxCell>
                <mxCell id="84" value="initializeBean" style="whiteSpace=wrap;html=1;fontSize=20;strokeWidth=2;" parent="1" vertex="1">
                    <mxGeometry x="622.5" y="1720" width="162.5" height="60" as="geometry"/>
                </mxCell>
                <mxCell id="89" value="" style="edgeStyle=elbowEdgeStyle;rounded=1;html=1;fontSize=20;strokeColor=#FFFFFF;strokeWidth=2;" parent="1" source="86" target="88" edge="1">
                    <mxGeometry relative="1" as="geometry"/>
                </mxCell>
                <mxCell id="86" value="BPPAfter方法" style="whiteSpace=wrap;html=1;fontSize=20;strokeWidth=2;" parent="1" vertex="1">
                    <mxGeometry x="643.75" y="1840" width="120" height="60" as="geometry"/>
                </mxCell>
                <mxCell id="91" value="" style="edgeStyle=elbowEdgeStyle;rounded=1;html=1;fontSize=20;strokeColor=#FFFFFF;strokeWidth=2;" parent="1" source="88" target="90" edge="1">
                    <mxGeometry relative="1" as="geometry"/>
                </mxCell>
                <mxCell id="92" value="否" style="edgeLabel;html=1;align=center;verticalAlign=middle;resizable=0;points=[];fontSize=20;" parent="91" vertex="1" connectable="0">
                    <mxGeometry x="-0.3608" relative="1" as="geometry">
                        <mxPoint as="offset"/>
                    </mxGeometry>
                </mxCell>
                <mxCell id="94" value="" style="edgeStyle=elbowEdgeStyle;rounded=1;html=1;fontSize=20;strokeColor=#FFFFFF;strokeWidth=2;" parent="1" source="88" target="96" edge="1">
                    <mxGeometry relative="1" as="geometry">
                        <mxPoint x="1242.5" y="1880" as="targetPoint"/>
                    </mxGeometry>
                </mxCell>
                <mxCell id="95" value="是" style="edgeLabel;html=1;align=center;verticalAlign=middle;resizable=0;points=[];fontSize=20;" parent="94" vertex="1" connectable="0">
                    <mxGeometry x="-0.178" y="-3" relative="1" as="geometry">
                        <mxPoint as="offset"/>
                    </mxGeometry>
                </mxCell>
                <mxCell id="88" value="判断是否需要被代理" style="rhombus;whiteSpace=wrap;html=1;fontSize=20;strokeWidth=2;" parent="1" vertex="1">
                    <mxGeometry x="873.75" y="1840" width="232.5" height="80" as="geometry"/>
                </mxCell>
                <mxCell id="132" style="edgeStyle=orthogonalEdgeStyle;rounded=1;html=1;exitX=0;exitY=0.5;exitDx=0;exitDy=0;entryX=0;entryY=0.5;entryDx=0;entryDy=0;fontSize=20;strokeColor=#FFFFFF;strokeWidth=2;" parent="1" source="90" target="36" edge="1">
                    <mxGeometry relative="1" as="geometry">
                        <Array as="points">
                            <mxPoint x="886" y="2040"/>
                            <mxPoint x="80" y="2040"/>
                            <mxPoint x="80" y="303"/>
                        </Array>
                    </mxGeometry>
                </mxCell>
                <mxCell id="90" value="如果不是，直接返回普通对象" style="whiteSpace=wrap;html=1;fontSize=20;strokeWidth=2;" parent="1" vertex="1">
                    <mxGeometry x="886.25" y="1980" width="206.25" height="80" as="geometry"/>
                </mxCell>
                <mxCell id="98" value="" style="edgeStyle=elbowEdgeStyle;rounded=1;html=1;fontSize=20;strokeColor=#FFFFFF;strokeWidth=2;" parent="1" source="96" target="97" edge="1">
                    <mxGeometry relative="1" as="geometry"/>
                </mxCell>
                <mxCell id="104" value="是" style="edgeLabel;html=1;align=center;verticalAlign=middle;resizable=0;points=[];fontSize=20;" parent="98" vertex="1" connectable="0">
                    <mxGeometry x="-0.5428" y="-4" relative="1" as="geometry">
                        <mxPoint as="offset"/>
                    </mxGeometry>
                </mxCell>
                <mxCell id="101" value="" style="edgeStyle=elbowEdgeStyle;rounded=1;html=1;fontSize=20;strokeColor=#FFFFFF;strokeWidth=2;entryX=0;entryY=0.5;entryDx=0;entryDy=0;" parent="1" source="96" target="103" edge="1">
                    <mxGeometry relative="1" as="geometry">
                        <mxPoint x="1456.25" y="1880" as="targetPoint"/>
                        <Array as="points">
                            <mxPoint x="1416.25" y="1880"/>
                        </Array>
                    </mxGeometry>
                </mxCell>
                <mxCell id="102" value="否" style="edgeLabel;html=1;align=center;verticalAlign=middle;resizable=0;points=[];fontSize=20;" parent="101" vertex="1" connectable="0">
                    <mxGeometry x="-0.375" relative="1" as="geometry">
                        <mxPoint as="offset"/>
                    </mxGeometry>
                </mxCell>
                <mxCell id="96" value="是否需要被跳过" style="rhombus;whiteSpace=wrap;html=1;fontSize=20;" parent="1" vertex="1">
                    <mxGeometry x="1206.24" y="1840" width="170.01" height="80" as="geometry"/>
                </mxCell>
                <mxCell id="131" style="edgeStyle=orthogonalEdgeStyle;rounded=1;html=1;exitX=0;exitY=0.5;exitDx=0;exitDy=0;fontSize=20;strokeColor=#FFFFFF;strokeWidth=2;" parent="1" source="97" target="90" edge="1">
                    <mxGeometry relative="1" as="geometry"/>
                </mxCell>
                <mxCell id="97" value="直接返回普通对象" style="whiteSpace=wrap;html=1;fontSize=20;" parent="1" vertex="1">
                    <mxGeometry x="1231.245" y="1990" width="120" height="60" as="geometry"/>
                </mxCell>
                <mxCell id="106" value="" style="edgeStyle=elbowEdgeStyle;rounded=1;html=1;fontSize=20;strokeColor=#FFFFFF;strokeWidth=2;" parent="1" source="103" target="105" edge="1">
                    <mxGeometry relative="1" as="geometry"/>
                </mxCell>
                <mxCell id="124" value="" style="edgeStyle=orthogonalEdgeStyle;rounded=1;html=1;fontSize=20;strokeColor=#FFFFFF;strokeWidth=2;" parent="1" source="103" target="123" edge="1">
                    <mxGeometry relative="1" as="geometry"/>
                </mxCell>
                <mxCell id="103" value="获取符合条件的Advisor" style="whiteSpace=wrap;html=1;fontSize=20;" parent="1" vertex="1">
                    <mxGeometry x="1476.25" y="1850" width="120" height="60" as="geometry"/>
                </mxCell>
                <mxCell id="108" value="" style="edgeStyle=elbowEdgeStyle;rounded=1;html=1;fontSize=20;strokeColor=#FFFFFF;strokeWidth=2;" parent="1" source="105" target="107" edge="1">
                    <mxGeometry relative="1" as="geometry"/>
                </mxCell>
                <mxCell id="105" value="获取容器中存在的Advisor" style="whiteSpace=wrap;html=1;fontSize=20;" parent="1" vertex="1">
                    <mxGeometry x="1476.25" y="1710" width="120" height="60" as="geometry"/>
                </mxCell>
                <mxCell id="110" value="" style="edgeStyle=elbowEdgeStyle;rounded=1;html=1;fontSize=20;strokeColor=#FFFFFF;strokeWidth=2;" parent="1" source="107" target="109" edge="1">
                    <mxGeometry relative="1" as="geometry"/>
                </mxCell>
                <mxCell id="112" value="匹配不上" style="edgeLabel;html=1;align=center;verticalAlign=middle;resizable=0;points=[];fontSize=20;" parent="110" vertex="1" connectable="0">
                    <mxGeometry x="0.2889" relative="1" as="geometry">
                        <mxPoint y="18" as="offset"/>
                    </mxGeometry>
                </mxCell>
                <mxCell id="114" value="" style="edgeStyle=orthogonalEdgeStyle;rounded=1;html=1;fontSize=20;strokeColor=#FFFFFF;strokeWidth=2;" parent="1" source="107" target="113" edge="1">
                    <mxGeometry relative="1" as="geometry">
                        <Array as="points">
                            <mxPoint x="1606.25" y="1600"/>
                            <mxPoint x="1606.25" y="1600"/>
                        </Array>
                    </mxGeometry>
                </mxCell>
                <mxCell id="117" value="匹配" style="edgeLabel;html=1;align=center;verticalAlign=middle;resizable=0;points=[];fontSize=20;" parent="114" vertex="1" connectable="0">
                    <mxGeometry x="0.325" y="-1" relative="1" as="geometry">
                        <mxPoint as="offset"/>
                    </mxGeometry>
                </mxCell>
                <mxCell id="107" value="进行规则匹配" style="rhombus;whiteSpace=wrap;html=1;fontSize=20;" parent="1" vertex="1">
                    <mxGeometry x="1496.25" y="1560" width="80" height="80" as="geometry"/>
                </mxCell>
                <mxCell id="111" style="edgeStyle=orthogonalEdgeStyle;rounded=1;html=1;fontSize=20;strokeColor=#FFFFFF;strokeWidth=2;entryX=0;entryY=0.5;entryDx=0;entryDy=0;" parent="1" source="109" target="107" edge="1">
                    <mxGeometry relative="1" as="geometry">
                        <mxPoint x="1376.25" y="1580" as="targetPoint"/>
                        <Array as="points">
                            <mxPoint x="1436.25" y="1440"/>
                            <mxPoint x="1436.25" y="1600"/>
                        </Array>
                    </mxGeometry>
                </mxCell>
                <mxCell id="109" value="直接跳转下一个" style="whiteSpace=wrap;html=1;fontSize=20;" parent="1" vertex="1">
                    <mxGeometry x="1476.25" y="1410" width="120" height="60" as="geometry"/>
                </mxCell>
                <mxCell id="119" value="" style="edgeStyle=orthogonalEdgeStyle;rounded=1;html=1;fontSize=20;strokeColor=#FFFFFF;strokeWidth=2;" parent="1" source="113" target="118" edge="1">
                    <mxGeometry relative="1" as="geometry"/>
                </mxCell>
                <mxCell id="113" value="添加到符合条件的集合" style="whiteSpace=wrap;html=1;fontSize=20;" parent="1" vertex="1">
                    <mxGeometry x="1736.25" y="1570" width="120" height="60" as="geometry"/>
                </mxCell>
                <mxCell id="116" style="edgeStyle=orthogonalEdgeStyle;rounded=1;html=1;exitX=0;exitY=0.5;exitDx=0;exitDy=0;exitPerimeter=0;entryX=0.863;entryY=0.338;entryDx=0;entryDy=0;entryPerimeter=0;fontSize=20;strokeColor=#FFFFFF;strokeWidth=2;" parent="1" source="115" target="107" edge="1">
                    <mxGeometry relative="1" as="geometry">
                        <Array as="points">
                            <mxPoint x="1766.25" y="1410"/>
                            <mxPoint x="1616.25" y="1410"/>
                            <mxPoint x="1616.25" y="1587"/>
                        </Array>
                    </mxGeometry>
                </mxCell>
                <mxCell id="115" value="通过表达式在类上和方法上进行匹配，具体方式看源码" style="shape=note;size=20;whiteSpace=wrap;html=1;fontSize=20;" parent="1" vertex="1">
                    <mxGeometry x="1766.25" y="1330" width="270" height="150" as="geometry"/>
                </mxCell>
                <mxCell id="121" value="" style="edgeStyle=orthogonalEdgeStyle;rounded=1;html=1;fontSize=20;strokeColor=#FFFFFF;strokeWidth=2;" parent="1" source="118" target="120" edge="1">
                    <mxGeometry relative="1" as="geometry"/>
                </mxCell>
                <mxCell id="118" value="添加ExposeInvokationInterceptor的Advisor" style="whiteSpace=wrap;html=1;fontSize=20;" parent="1" vertex="1">
                    <mxGeometry x="1631.25" y="1710" width="330" height="80" as="geometry"/>
                </mxCell>
                <mxCell id="122" style="edgeStyle=orthogonalEdgeStyle;rounded=1;html=1;exitX=0;exitY=0.5;exitDx=0;exitDy=0;entryX=1;entryY=0.5;entryDx=0;entryDy=0;fontSize=20;strokeColor=#FFFFFF;strokeWidth=2;" parent="1" source="120" target="103" edge="1">
                    <mxGeometry relative="1" as="geometry"/>
                </mxCell>
                <mxCell id="120" value="进行排序操作" style="whiteSpace=wrap;html=1;fontSize=20;" parent="1" vertex="1">
                    <mxGeometry x="1736.25" y="1850" width="120" height="60" as="geometry"/>
                </mxCell>
                <mxCell id="126" value="" style="edgeStyle=orthogonalEdgeStyle;rounded=1;html=1;fontSize=20;strokeColor=#FFFFFF;strokeWidth=2;" parent="1" source="123" target="125" edge="1">
                    <mxGeometry relative="1" as="geometry"/>
                </mxCell>
                <mxCell id="123" value="进行代理的创建" style="whiteSpace=wrap;html=1;fontSize=20;" parent="1" vertex="1">
                    <mxGeometry x="1476.25" y="1990" width="120" height="60" as="geometry"/>
                </mxCell>
                <mxCell id="128" value="" style="edgeStyle=orthogonalEdgeStyle;rounded=1;html=1;fontSize=20;strokeColor=#FFFFFF;strokeWidth=2;" parent="1" source="125" target="127" edge="1">
                    <mxGeometry relative="1" as="geometry"/>
                </mxCell>
                <mxCell id="125" value="createProxy" style="whiteSpace=wrap;html=1;fontSize=20;" parent="1" vertex="1">
                    <mxGeometry x="1676.25" y="1990" width="120" height="60" as="geometry"/>
                </mxCell>
                <mxCell id="127" value="未完待续..." style="whiteSpace=wrap;html=1;fontSize=20;" parent="1" vertex="1">
                    <mxGeometry x="1876.25" y="1990" width="120" height="60" as="geometry"/>
                </mxCell>
                <mxCell id="134" value="AOP整体流程概述（猜测）&lt;br style=&quot;font-size: 18px&quot;&gt;1. 查看配置文件的解析工作，在处理之后的BeanDefinition中包含什么信息?&lt;br&gt;BeanDefination的解析工作&lt;br style=&quot;font-size: 18px&quot;&gt;2.对AOP相关的beanDefinition进行实例化操作&lt;br style=&quot;font-size: 18px&quot;&gt;在进行第一个对象创建之前，就必须把AOP需要的相关对象提前准备好，因为无法预估哪些对象需要动态代理&lt;br style=&quot;font-size: 18px&quot;&gt;3.在哪个步骤中可以提前实例化并且生成对应的对象&lt;br style=&quot;font-size: 18px&quot;&gt;BFPP是用来对BeanFactory进行修改操作的，不会影响到后续的实例化过程&lt;br style=&quot;font-size: 18px&quot;&gt;BPP(BeanPostProcessor(Before和After)) 的子类、resolveBeforeInstantiation()" style="shape=note;whiteSpace=wrap;html=1;backgroundOutline=1;darkOpacity=0.05;fontSize=18;" vertex="1" parent="1">
                    <mxGeometry x="980" y="70" width="820" height="230" as="geometry"/>
                </mxCell>
                <mxCell id="138" value="" style="edgeStyle=none;html=1;fontSize=18;" edge="1" parent="1" source="136" target="137">
                    <mxGeometry relative="1" as="geometry"/>
                </mxCell>
                <mxCell id="145" value="创建" style="edgeLabel;html=1;align=center;verticalAlign=middle;resizable=0;points=[];fontSize=18;" vertex="1" connectable="0" parent="138">
                    <mxGeometry x="0.3791" y="-3" relative="1" as="geometry">
                        <mxPoint x="-1" as="offset"/>
                    </mxGeometry>
                </mxCell>
                <mxCell id="136" value="创建AspectJPointCutAdvisor对象" style="rounded=1;whiteSpace=wrap;html=1;fontSize=18;" vertex="1" parent="1">
                    <mxGeometry x="2270" y="680" width="270" height="90" as="geometry"/>
                </mxCell>
                <mxCell id="140" value="" style="edgeStyle=none;html=1;fontSize=18;" edge="1" parent="1" source="137" target="139">
                    <mxGeometry relative="1" as="geometry"/>
                </mxCell>
                <mxCell id="150" value="需要创建" style="edgeLabel;html=1;align=center;verticalAlign=middle;resizable=0;points=[];fontSize=18;" vertex="1" connectable="0" parent="140">
                    <mxGeometry x="0.1693" y="1" relative="1" as="geometry">
                        <mxPoint as="offset"/>
                    </mxGeometry>
                </mxCell>
                <mxCell id="141" style="edgeStyle=none;html=1;exitX=1;exitY=0.5;exitDx=0;exitDy=0;fontSize=18;entryX=0;entryY=0.5;entryDx=0;entryDy=0;" edge="1" parent="1" source="137" target="144">
                    <mxGeometry relative="1" as="geometry">
                        <mxPoint x="3246.74" y="810" as="targetPoint"/>
                    </mxGeometry>
                </mxCell>
                <mxCell id="154" value="需要创建" style="edgeLabel;html=1;align=center;verticalAlign=middle;resizable=0;points=[];fontSize=18;" vertex="1" connectable="0" parent="141">
                    <mxGeometry x="0.1494" y="2" relative="1" as="geometry">
                        <mxPoint as="offset"/>
                    </mxGeometry>
                </mxCell>
                <mxCell id="142" style="edgeStyle=none;html=1;exitX=1;exitY=0.5;exitDx=0;exitDy=0;fontSize=18;entryX=0;entryY=0.5;entryDx=0;entryDy=0;" edge="1" parent="1" source="137" target="143">
                    <mxGeometry relative="1" as="geometry">
                        <mxPoint x="3404.24" y="635.0000000000002" as="targetPoint"/>
                    </mxGeometry>
                </mxCell>
                <mxCell id="149" value="需要创建" style="edgeLabel;html=1;align=center;verticalAlign=middle;resizable=0;points=[];fontSize=18;" vertex="1" connectable="0" parent="142">
                    <mxGeometry x="0.1822" y="-4" relative="1" as="geometry">
                        <mxPoint x="-1" as="offset"/>
                    </mxGeometry>
                </mxCell>
                <mxCell id="147" value="" style="edgeStyle=none;html=1;fontSize=18;" edge="1" parent="1" source="137" target="136">
                    <mxGeometry relative="1" as="geometry"/>
                </mxCell>
                <mxCell id="148" value="需要创建" style="edgeLabel;html=1;align=center;verticalAlign=middle;resizable=0;points=[];fontSize=18;" vertex="1" connectable="0" parent="147">
                    <mxGeometry x="-0.3435" y="4" relative="1" as="geometry">
                        <mxPoint x="-1" as="offset"/>
                    </mxGeometry>
                </mxCell>
                <mxCell id="137" value="AspectJAroundAdvice" style="whiteSpace=wrap;html=1;fontSize=18;rounded=1;" vertex="1" parent="1">
                    <mxGeometry x="2736.74" y="695" width="445" height="65" as="geometry"/>
                </mxCell>
                <mxCell id="139" value="AspectJExpressionPointcut" style="whiteSpace=wrap;html=1;fontSize=18;rounded=1;" vertex="1" parent="1">
                    <mxGeometry x="3404.24" y="695" width="272.5" height="60" as="geometry"/>
                </mxCell>
                <mxCell id="143" value="Method" style="whiteSpace=wrap;html=1;fontSize=18;rounded=1;" vertex="1" parent="1">
                    <mxGeometry x="3404.24" y="600" width="265.76" height="60" as="geometry"/>
                </mxCell>
                <mxCell id="144" value="AspectInstanceFactory" style="whiteSpace=wrap;html=1;fontSize=18;rounded=1;" vertex="1" parent="1">
                    <mxGeometry x="3404.24" y="790" width="272.5" height="60" as="geometry"/>
                </mxCell>
                <mxCell id="157" value="从左向右创建" style="shape=singleArrow;whiteSpace=wrap;html=1;fontSize=18;" vertex="1" parent="1">
                    <mxGeometry x="2260" y="430" width="1470" height="131.25" as="geometry"/>
                </mxCell>
                <mxCell id="158" value="必须要把右边的对象创建完成之后左边的对象才能创建" style="shape=singleArrow;direction=west;whiteSpace=wrap;html=1;fontSize=18;" vertex="1" parent="1">
                    <mxGeometry x="2226.74" y="870" width="1450" height="210" as="geometry"/>
                </mxCell>
            </root>
        </mxGraphModel>
    </diagram>
</mxfile>